<svg width="64" height="64" viewBox="0 0 64 64" fill="none" xmlns="http://www.w3.org/2000/svg">
<path d="M13.9498 34.248L14.0938 29.4H13.8778L10.6378 38.016L7.39784 29.4H7.18184L7.32584 34.248V42H4.58984V25.248H8.33384L10.6618 31.416H10.8298L13.1818 25.248H16.6858V42H13.9498V34.248Z" fill="black"/>
<path d="M22.8203 42L18.2363 25.248H21.6923L23.7803 33.72L25.0043 39H25.1723L26.4203 33.72L28.5323 25.248H31.8203L27.2363 42H22.8203Z" fill="black"/>
<path d="M37.2109 42L32.627 25.248H36.0829L38.1709 33.72L39.395 39H39.563L40.8109 33.72L42.9229 25.248H46.2109L41.627 42H37.2109Z" fill="black"/>
<path d="M57.1217 34.248L57.2657 29.4H57.0497L53.8097 38.016L50.5697 29.4H50.3537L50.4977 34.248V42H47.7617V25.248H51.5057L53.8337 31.416H54.0017L56.3537 25.248H59.8577V42H57.1217V34.248Z" fill="black"/>
</svg>
